<svg width="58" height="60" viewBox="0 0 58 60" fill="none" xmlns="http://www.w3.org/2000/svg">
<path d="M29.3469 58.5899C29.0769 58.7199 28.6539 59.2 28.5099 58.93C28.2249 58.41 28.009 57.85 27.772 57.31C27.104 55.77 26.6389 54.6 26.0489 53.03C24.5509 49.03 23.258 44.9199 22.457 40.7199C21.545 35.9499 20.9019 30.7799 21.8659 25.9599C22.2319 24.1299 23.856 22.29 25.065 20.94C27.874 17.8 31.6389 15.75 35.3999 13.95C37.1409 13.12 38.932 12.3 40.764 11.69C37.945 12.16 35.1469 12.83 32.3489 13.41C29.8889 13.92 27.4029 14.32 24.9669 14.94C24.4929 15.06 23.9429 16.45 23.7859 16.81C23.2149 18.09 22.8899 19.42 22.6049 20.79C15.9309 20.79 9.12593 17.85 3.60893 14.3C2.49893 13.58 -0.874068 11.8299 0.212932 10.1099C0.776932 9.21993 2.24293 8.85 3.16593 8.44C5.73793 7.3 8.36293 6.31 11.0399 5.44C21.7989 1.93 33.2819 0.470008 44.5529 0.0700082C47.3889 -0.0299918 50.2289 -0.0200309 53.0669 0.0299691C54.1669 0.0399691 55.2669 0.0899837 56.3639 0.169984C56.6979 0.199984 57.1099 0.379935 57.3489 0.619935C57.8109 1.07993 57.8789 1.75995 57.8899 2.38995C57.9039 3.16995 57.9229 3.95994 57.8899 4.74994C57.7709 7.55994 57.2609 10.3799 56.6099 13.1199C53.7499 25.1299 47.5459 36.26 40.7149 46.43C38.1869 50.2 35.4809 53.83 32.6929 57.41C32.3199 57.89 31.941 58.36 31.561 58.83C31.251 59.22 30.8839 59.7999 30.3309 59.8699C29.5979 59.9599 29.186 59.8 28.707 59.28C28.689 59.26 28.518 59.0499 28.608 58.9799C28.833 58.8199 29.1009 58.7199 29.3469 58.5899Z" fill="#628DBC"/>
</svg>
