<svg width="58" height="60" viewBox="0 0 58 60" fill="none" xmlns="http://www.w3.org/2000/svg">
<path d="M29.3459 58.6001C29.0769 58.7301 28.6539 59.2101 28.5099 58.9401C28.2249 58.4201 28.008 57.8601 27.771 57.3201C27.104 55.7801 26.6379 54.6101 26.0489 53.0401C24.5509 49.0401 23.258 44.9301 22.457 40.7301C21.545 35.9601 20.9009 30.7901 21.8659 25.9701C22.2309 24.1401 23.856 22.3001 25.065 20.9501C27.873 17.8001 31.639 15.7601 35.399 13.9601C37.14 13.1301 38.932 12.3101 40.764 11.7001C37.945 12.1701 35.1459 12.8401 32.3479 13.4201C29.8879 13.9301 27.402 14.3301 24.966 14.9501C24.492 15.0701 23.942 16.4601 23.785 16.8201C23.215 18.1001 22.89 19.4301 22.604 20.8001C15.931 20.8001 9.12495 17.8601 3.60795 14.3101C2.49895 13.5901 -0.874067 11.8401 0.212933 10.1201C0.776933 9.23014 2.24196 8.86009 3.16496 8.45009C5.73696 7.31009 8.36298 6.32009 11.039 5.45009C21.799 1.94009 33.281 0.480097 44.553 0.0800972C47.389 -0.0199028 50.2289 -0.00995161 53.0669 0.0300484C54.1669 0.0500484 55.2669 0.100073 56.3639 0.180073C56.6969 0.210073 57.1089 0.390024 57.3479 0.630024C57.8109 1.09002 57.8789 1.77004 57.8899 2.40004C57.9029 3.18004 57.9229 3.97003 57.8899 4.76003C57.7709 7.57003 57.261 10.39 56.61 13.13C53.749 25.14 47.545 36.2701 40.714 46.4401C38.187 50.2101 35.481 53.8401 32.693 57.4201C32.319 57.9001 31.94 58.3701 31.561 58.8401C31.251 59.2301 30.884 59.81 30.331 59.88C29.597 59.97 29.185 59.8101 28.707 59.2901C28.689 59.2701 28.518 59.0601 28.608 58.9901C28.833 58.8301 29.0999 58.7301 29.3459 58.6001Z" fill="#F08080"/>
</svg>
