<svg width="3840" height="628" viewBox="0 0 3840 628" fill="none" xmlns="http://www.w3.org/2000/svg">
<rect x="7.84947" y="7.84947" width="1868.17" height="612.259" rx="86.3442" fill="black"/>
<rect x="7.84947" y="7.84947" width="1868.17" height="612.259" rx="86.3442" stroke="#A6A6A6" stroke-width="15.6989"/>
<path d="M387.835 325.959C388.025 311.518 391.954 297.358 399.256 284.797C406.558 272.237 416.996 261.683 429.598 254.119C421.593 242.956 411.031 233.77 398.753 227.289C386.474 220.809 372.817 217.213 358.866 216.786C329.106 213.737 300.255 234.172 285.089 234.172C269.63 234.172 246.281 217.089 221.138 217.594C204.875 218.107 189.025 222.724 175.132 230.996C161.24 239.267 149.78 250.911 141.867 264.793C107.593 322.728 133.159 407.873 165.991 454.704C182.418 477.636 201.616 503.251 226.737 502.343C251.319 501.347 260.5 487.039 290.172 487.039C319.569 487.039 328.183 502.343 353.813 501.765C380.191 501.347 396.81 478.732 412.66 455.583C424.463 439.243 433.545 421.185 439.57 402.075C424.246 395.748 411.168 385.155 401.968 371.62C392.768 358.084 387.852 342.204 387.835 325.959Z" fill="white"/>
<path d="M339.424 185.987C353.806 169.131 360.892 147.466 359.176 125.592C337.203 127.845 316.907 138.097 302.33 154.307C295.203 162.225 289.745 171.438 286.267 181.417C282.789 191.397 281.36 201.947 282.061 212.466C293.051 212.577 303.924 210.251 313.86 205.665C323.796 201.078 332.537 194.35 339.424 185.987Z" fill="white"/>
<path d="M577.58 128.329H610.074C638.153 128.329 651.813 145.025 651.813 175.311C651.813 205.598 638.015 222.5 610.074 222.5H577.58V128.329ZM593.241 141.506V209.323H608.35C626.977 209.323 635.738 198.078 635.738 175.518C635.738 152.821 626.908 141.506 608.35 141.506H593.241ZM701.347 148.336C720.389 148.336 733.703 160.685 733.703 181.175V190.627C733.703 211.807 720.389 223.742 701.347 223.742C682.03 223.742 668.853 211.945 668.853 190.696V181.244C668.853 161.306 682.237 148.336 701.347 148.336ZM701.416 160.685C690.516 160.685 684.307 169.792 684.307 182.003V190.144C684.307 202.355 690.102 211.393 701.416 211.393C712.593 211.393 718.319 202.424 718.319 190.144V182.003C718.319 169.792 712.317 160.685 701.416 160.685ZM846.156 149.578L826.977 222.5H811.386L796.139 168.688H795.725L780.754 222.5H765.094L745.087 149.578H761.575L773.303 205.184H773.993L788.688 149.578H803.107L818.216 205.184H818.906L830.841 149.578H846.156ZM861.334 222.5V149.578H876.374V162.686H877.133C878.995 156.96 884.308 148.474 899.071 148.474C913.766 148.474 923.632 156.615 923.632 173.241V222.5H908.316V177.726C908.316 166.618 902.521 161.513 893.897 161.513C882.583 161.513 876.65 170.206 876.65 182.003V222.5H861.334ZM946.812 222.5V123.362H962.128V222.5H946.812ZM1014.7 148.336C1033.74 148.336 1047.05 160.685 1047.05 181.175V190.627C1047.05 211.807 1033.74 223.742 1014.7 223.742C995.381 223.742 982.204 211.945 982.204 190.696V181.244C982.204 161.306 995.588 148.336 1014.7 148.336ZM1014.77 160.685C1003.87 160.685 997.657 169.792 997.657 182.003V190.144C997.657 202.355 1003.45 211.393 1014.77 211.393C1025.94 211.393 1031.67 202.424 1031.67 190.144V182.003C1031.67 169.792 1025.67 160.685 1014.77 160.685ZM1086.72 223.604C1072.58 223.604 1062.85 214.911 1062.85 201.32C1062.85 188.419 1071.82 179.727 1088.65 179.727H1107.07V172.897C1107.07 164.549 1101.76 160.616 1093.35 160.616C1085.07 160.616 1081.34 164.066 1080.17 168.895H1065.61C1066.51 156.684 1075.68 148.474 1093.83 148.474C1109.42 148.474 1122.32 154.959 1122.32 173.104V222.5H1107.76V213.048H1107.07C1103.83 218.637 1097.49 223.604 1086.72 223.604ZM1091.48 211.738C1100.18 211.738 1107.07 205.805 1107.07 197.871V190.006H1091.07C1082.17 190.006 1078.24 194.49 1078.24 200.561C1078.24 208.15 1084.58 211.738 1091.48 211.738ZM1169.51 148.612C1179.79 148.612 1187.65 153.166 1190.48 160.547H1191.24V123.362H1206.56V222.5H1191.66V210.841H1190.9C1188.69 218.223 1179.93 223.466 1169.3 223.466C1152.54 223.466 1141.64 211.531 1141.64 192.283V179.795C1141.64 160.547 1152.75 148.612 1169.51 148.612ZM1173.79 161.168C1163.58 161.168 1157.23 168.757 1157.23 182.003V190.006C1157.23 203.321 1163.65 210.91 1174.13 210.91C1184.48 210.91 1191.24 203.39 1191.24 190.972V179.933C1191.24 168.688 1183.86 161.168 1173.79 161.168ZM1290.66 148.336C1309.7 148.336 1323.01 160.685 1323.01 181.175V190.627C1323.01 211.807 1309.7 223.742 1290.66 223.742C1271.34 223.742 1258.16 211.945 1258.16 190.696V181.244C1258.16 161.306 1271.55 148.336 1290.66 148.336ZM1290.72 160.685C1279.82 160.685 1273.62 169.792 1273.62 182.003V190.144C1273.62 202.355 1279.41 211.393 1290.72 211.393C1301.9 211.393 1307.63 202.424 1307.63 190.144V182.003C1307.63 169.792 1301.63 160.685 1290.72 160.685ZM1342.74 222.5V149.578H1357.78V162.686H1358.54C1360.4 156.96 1365.72 148.474 1380.48 148.474C1395.17 148.474 1405.04 156.615 1405.04 173.241V222.5H1389.72V177.726C1389.72 166.618 1383.93 161.513 1375.31 161.513C1363.99 161.513 1358.06 170.206 1358.06 182.003V222.5H1342.74ZM1464.3 150.061V131.848H1479.27V150.061H1495.62V162.065H1479.27V200.768C1479.27 208.702 1482.24 210.91 1490.45 210.91C1492.52 210.91 1495.28 210.772 1496.45 210.634V222.362C1495.21 222.569 1490.1 222.983 1486.65 222.983C1468.92 222.983 1464.1 216.636 1464.1 202.01V162.065H1452.99V150.061H1464.3ZM1514.94 222.5V123.362H1530.19V162.686H1530.95C1532.53 157.512 1538.47 148.474 1553.09 148.474C1567.3 148.474 1577.45 156.684 1577.45 173.31V222.5H1562.2V177.795C1562.2 166.687 1556.06 161.513 1547.37 161.513C1536.4 161.513 1530.19 170.137 1530.19 182.003V222.5H1514.94ZM1628.84 223.742C1608.97 223.742 1596.62 211.531 1596.62 190.972V181.106C1596.62 160.409 1610.15 148.336 1627.95 148.336C1646.23 148.336 1659.13 161.03 1659.13 181.106V189.661H1611.8V193.248C1611.8 203.735 1618.01 211.462 1628.77 211.462C1636.78 211.462 1642.3 207.667 1643.33 203.114H1658.3C1657.4 211.531 1648.5 223.742 1628.84 223.742ZM1611.8 179.658H1644.16V178.692C1644.16 167.722 1637.74 160.409 1628.01 160.409C1618.29 160.409 1611.8 167.722 1611.8 178.692V179.658Z" fill="white"/>
<path d="M599.795 485.5H567.922L632.772 297.159H667.818L732.531 485.5H699.416L682.72 433.344H616.628L599.795 485.5ZM650.433 329.722H649.191L623.665 409.336H675.683L650.433 329.722ZM820.496 487.57C801.593 487.57 787.243 478.601 779.516 465.217H778.412V533.931H747.781V339.656H777.584V361.043H778.688C786.691 347.107 801.593 337.724 821.186 337.724C853.887 337.724 877.205 362.423 877.205 406.024V418.994C877.205 462.32 854.163 487.57 820.496 487.57ZM813.459 462.32C832.914 462.32 846.16 446.728 846.16 417.338V407.128C846.16 378.842 833.742 362.699 812.907 362.699C791.52 362.699 778.136 380.084 778.136 406.99V417.338C778.136 444.934 791.658 462.32 813.459 462.32ZM976.208 487.57C957.305 487.57 942.955 478.601 935.229 465.217H934.125V533.931H903.493V339.656H933.297V361.043H934.401C942.403 347.107 957.305 337.724 976.898 337.724C1009.6 337.724 1032.92 362.423 1032.92 406.024V418.994C1032.92 462.32 1009.88 487.57 976.208 487.57ZM969.171 462.32C988.626 462.32 1001.87 446.728 1001.87 417.338V407.128C1001.87 378.842 989.454 362.699 968.619 362.699C947.233 362.699 933.849 380.084 933.849 406.99V417.338C933.849 444.934 947.371 462.32 969.171 462.32ZM1096.39 433.206H1127.03C1128.41 449.487 1142.76 463.423 1169.39 463.423C1193.81 463.423 1208.3 451.971 1208.3 434.172C1208.3 419.822 1198.64 412.095 1178.49 407.266L1147.59 399.539C1123.3 393.882 1101.5 379.394 1101.5 348.763C1101.5 312.75 1132.96 293.019 1169.52 293.019C1206.09 293.019 1236.58 312.75 1237.27 347.935H1207.19C1205.81 331.929 1193.53 318.683 1169.11 318.683C1147.59 318.683 1132.96 328.894 1132.96 346.417C1132.96 358.697 1141.51 367.528 1159.04 371.529L1189.81 379.118C1218.09 386.017 1239.62 399.401 1239.62 431.412C1239.62 468.391 1209.68 489.225 1167.04 489.225C1114.61 489.225 1097.08 458.594 1096.39 433.206ZM1276.94 339.656V304.196H1307.02V339.656H1335.45V364.216H1307.02V442.037C1307.02 457.904 1312.96 462.32 1329.38 462.32C1332 462.32 1334.48 462.32 1336.27 462.044V485.5C1333.79 485.914 1328 486.466 1321.79 486.466C1286.33 486.466 1276.53 473.772 1276.53 444.52V364.216H1256.38V339.656H1276.94ZM1418.17 337.173C1460.11 337.173 1482.88 366.7 1482.88 406.438V418.166C1482.88 459.284 1460.25 487.984 1418.17 487.984C1376.09 487.984 1353.18 459.284 1353.18 418.166V406.438C1353.18 366.838 1376.22 337.173 1418.17 337.173ZM1418.17 361.733C1395.4 361.733 1384.09 380.36 1384.09 406.852V418.028C1384.09 444.106 1395.26 463.285 1418.17 463.285C1441.07 463.285 1452.11 444.244 1452.11 418.028V406.852C1452.11 380.222 1440.94 361.733 1418.17 361.733ZM1508.76 485.5V339.656H1539.39V358.835H1540.49C1544.22 349.729 1555.12 337.586 1575.4 337.586C1579.4 337.586 1582.85 337.862 1585.75 338.414V365.458C1583.13 364.768 1577.74 364.354 1572.64 364.354C1548.08 364.354 1539.8 379.532 1539.8 399.125V485.5H1508.76ZM1660.05 487.984C1621 487.984 1596.17 462.182 1596.17 418.994V404.23C1596.17 363.527 1620.45 337.173 1658.81 337.173C1697.72 337.173 1721.18 364.492 1721.18 405.61V419.546H1626.39V422.996C1626.39 447.556 1639.63 463.837 1660.47 463.837C1676.06 463.837 1686.68 456.11 1690.41 443.554H1719.52C1715.11 467.149 1696.07 487.984 1660.05 487.984ZM1626.39 398.159H1691.24V397.883C1691.24 377.186 1678.4 360.905 1658.95 360.905C1639.22 360.905 1626.39 377.186 1626.39 397.883V398.159Z" fill="white"/>
<rect x="1963.72" y="7.84947" width="1868.17" height="612.259" rx="86.3442" fill="black"/>
<rect x="1963.72" y="7.84947" width="1868.17" height="612.259" rx="86.3442" stroke="#A6A6A6" stroke-width="15.6989"/>
<path d="M2235.39 305.528L2082.87 471.061C2082.89 471.091 2082.89 471.135 2082.9 471.164C2087.58 489.138 2103.63 502.366 2122.68 502.366C2130.3 502.366 2137.45 500.257 2143.58 496.565L2144.07 496.272L2315.74 394.975L2235.39 305.528Z" fill="#EA4335"/>
<path d="M2389.68 277.341L2389.54 277.238L2315.42 233.306L2231.92 309.29L2315.72 394.957L2389.44 351.464C2402.36 344.316 2411.14 330.385 2411.14 314.329C2411.14 298.362 2402.49 284.504 2389.68 277.341Z" fill="#FBBC04"/>
<path d="M2082.87 156.884C2081.95 160.342 2081.47 163.975 2081.47 167.725V460.236C2081.47 463.986 2081.95 467.619 2082.88 471.061L2240.63 309.761L2082.87 156.884Z" fill="#4285F4"/>
<path d="M2236.52 313.977L2315.45 233.276L2143.98 131.612C2137.75 127.789 2130.47 125.591 2122.69 125.591C2103.64 125.591 2087.56 138.849 2082.88 156.838C2082.88 156.852 2082.87 156.867 2082.87 156.882L2236.52 313.977Z" fill="#34A853"/>
<path d="M2640.5 176.845C2640.5 192.544 2635.85 205.051 2626.53 214.366C2616.07 225.46 2602.3 231.007 2585.24 231.007C2568.92 231.007 2555.1 225.355 2543.8 214.052C2532.5 202.748 2526.84 188.829 2526.84 172.292C2526.84 155.756 2532.5 141.837 2543.8 130.533C2555.1 119.23 2568.92 113.578 2585.24 113.578C2593.51 113.578 2601.31 115.044 2608.64 117.974C2615.96 120.905 2621.98 125.039 2626.69 130.376L2616.33 140.738C2612.87 136.551 2608.37 133.307 2602.83 131.004C2597.38 128.597 2591.52 127.394 2585.24 127.394C2573 127.394 2562.64 131.632 2554.16 140.11C2545.79 148.692 2541.6 159.419 2541.6 172.292C2541.6 185.166 2545.79 195.893 2554.16 204.475C2562.64 212.953 2573 217.191 2585.24 217.191C2596.44 217.191 2605.76 214.052 2613.19 207.772C2620.62 201.493 2624.91 192.858 2626.06 181.869H2585.24V168.368H2639.72C2640.24 171.298 2640.5 174.124 2640.5 176.845ZM2723.67 116.09V129.905H2672.5V165.542H2718.65V179.043H2672.5V214.68H2723.67V228.495H2658.05V116.09H2723.67ZM2781.45 129.905V228.495H2767V129.905H2735.6V116.09H2812.84V129.905H2781.45ZM2876.86 228.495H2862.42V116.09H2876.86V228.495ZM2937.82 129.905V228.495H2923.38V129.905H2891.98V116.09H2969.22V129.905H2937.82ZM3125.77 172.292C3125.77 188.933 3120.23 202.853 3109.13 214.052C3097.94 225.355 3084.23 231.007 3068 231.007C3051.68 231.007 3037.97 225.355 3026.87 214.052C3015.78 202.853 3010.23 188.933 3010.23 172.292C3010.23 155.652 3015.78 141.732 3026.87 130.533C3037.97 119.23 3051.68 113.578 3068 113.578C3084.33 113.578 3098.04 119.282 3109.13 130.69C3120.23 141.889 3125.77 155.756 3125.77 172.292ZM3024.99 172.292C3024.99 185.27 3029.07 195.998 3037.23 204.475C3045.5 212.953 3055.76 217.191 3068 217.191C3080.25 217.191 3090.45 212.953 3098.62 204.475C3106.88 196.103 3111.02 185.375 3111.02 172.292C3111.02 159.21 3106.88 148.482 3098.62 140.11C3090.45 131.632 3080.25 127.394 3068 127.394C3055.76 127.394 3045.5 131.632 3037.23 140.11C3029.07 148.587 3024.99 159.315 3024.99 172.292ZM3157.26 228.495H3142.82V116.09H3160.4L3215.03 203.533H3215.66L3215.03 181.869V116.09H3229.48V228.495H3214.41L3157.26 136.813H3156.63L3157.26 158.477V228.495Z" fill="white"/>
<path d="M3424.01 494.711H3449.58V321.842H3424.01V494.711ZM3654.32 384.111L3625.01 459.061H3624.13L3593.71 384.111H3566.17L3611.79 488.862L3585.79 547.135H3612.45L3682.76 384.111H3654.32ZM3509.31 475.075C3500.93 475.075 3489.25 470.857 3489.25 460.389C3489.25 447.058 3503.79 441.942 3516.36 441.942C3527.59 441.942 3532.9 444.389 3539.72 447.722C3537.73 463.735 3524.07 475.075 3509.31 475.075ZM3512.4 380.336C3493.88 380.336 3474.7 388.564 3466.78 406.804L3489.47 416.359C3494.32 406.804 3503.35 403.679 3512.84 403.679C3526.06 403.679 3539.5 411.685 3539.72 425.929V427.699C3535.09 425.03 3525.18 421.033 3513.05 421.033C3488.59 421.033 3463.68 434.599 3463.68 459.946C3463.68 483.081 3483.74 497.988 3506.22 497.988C3523.41 497.988 3532.9 490.203 3538.84 481.076H3539.72V494.421H3564.4V428.141C3564.4 397.456 3541.71 380.336 3512.4 380.336ZM3354.37 405.158H3318V345.903H3354.37C3373.48 345.903 3384.34 361.875 3384.34 375.524C3384.34 388.924 3373.48 405.158 3354.37 405.158ZM3353.71 321.842H3292.44V494.711H3318V429.22H3353.71C3382.05 429.22 3409.91 408.505 3409.91 375.524C3409.91 342.543 3382.05 321.842 3353.71 321.842ZM3019.61 475.102C3001.94 475.102 2987.16 460.182 2987.16 439.688C2987.16 418.973 3001.94 403.817 3019.61 403.817C3037.05 403.817 3050.73 418.973 3050.73 439.688C3050.73 460.182 3037.05 475.102 3019.61 475.102ZM3048.97 393.791H3048.08C3042.34 386.891 3031.31 380.654 3017.4 380.654C2988.25 380.654 2961.55 406.486 2961.55 439.688C2961.55 472.655 2988.25 498.279 3017.4 498.279C3031.31 498.279 3042.34 492.042 3048.08 484.907H3048.97V493.384C3048.97 515.882 3037.05 527.913 3017.84 527.913C3002.16 527.913 2992.45 516.546 2988.47 506.963L2966.18 516.325C2972.58 531.923 2989.58 551.076 3017.84 551.076C3047.86 551.076 3073.26 533.251 3073.26 489.816V384.208H3048.97V393.791ZM3090.92 494.711H3116.53V321.828H3090.92V494.711ZM3154.27 437.683C3153.61 414.963 3171.72 403.374 3184.73 403.374C3194.9 403.374 3203.51 408.491 3206.37 415.848L3154.27 437.683ZM3233.75 418.074C3228.9 404.937 3214.1 380.654 3183.86 380.654C3153.83 380.654 3128.89 404.481 3128.89 439.467C3128.89 472.433 3153.61 498.279 3186.72 498.279C3213.44 498.279 3228.9 481.795 3235.3 472.212L3215.43 458.84C3208.81 468.645 3199.75 475.102 3186.72 475.102C3173.7 475.102 3164.43 469.087 3158.46 457.291L3236.4 424.753L3233.75 418.074ZM2612.88 398.7V423.647H2672.03C2670.27 437.683 2665.63 447.93 2658.58 455.051C2649.96 463.749 2636.49 473.332 2612.88 473.332C2576.44 473.332 2547.96 443.698 2547.96 406.942C2547.96 370.172 2576.44 340.552 2612.88 340.552C2632.53 340.552 2646.87 348.351 2657.47 358.377L2674.91 340.773C2660.11 326.516 2640.47 315.592 2612.88 315.592C2562.98 315.592 2521.04 356.593 2521.04 406.942C2521.04 457.291 2562.98 498.279 2612.88 498.279C2639.8 498.279 2660.11 489.36 2676.01 472.655C2692.36 456.171 2697.43 433.009 2697.43 414.285C2697.43 408.491 2696.99 403.153 2696.1 398.7H2612.88ZM2764.7 475.102C2747.03 475.102 2731.79 460.403 2731.79 439.467C2731.79 418.295 2747.03 403.817 2764.7 403.817C2782.35 403.817 2797.58 418.295 2797.58 439.467C2797.58 460.403 2782.35 475.102 2764.7 475.102ZM2764.7 380.654C2732.45 380.654 2706.18 405.379 2706.18 439.467C2706.18 473.332 2732.45 498.279 2764.7 498.279C2796.93 498.279 2823.2 473.332 2823.2 439.467C2823.2 405.379 2796.93 380.654 2764.7 380.654ZM2892.32 475.102C2874.65 475.102 2859.41 460.403 2859.41 439.467C2859.41 418.295 2874.65 403.817 2892.32 403.817C2909.98 403.817 2925.2 418.295 2925.2 439.467C2925.2 460.403 2909.98 475.102 2892.32 475.102ZM2892.32 380.654C2860.09 380.654 2833.82 405.379 2833.82 439.467C2833.82 473.332 2860.09 498.279 2892.32 498.279C2924.55 498.279 2950.82 473.332 2950.82 439.467C2950.82 405.379 2924.55 380.654 2892.32 380.654Z" fill="white"/>
</svg>
